<svg width="25" height="25" viewBox="0 0 25 25" fill="none" xmlns="http://www.w3.org/2000/svg">
<g id="Hicon / Outline / calender plus" clip-path="url(#clip0_4428_1158)">
<path id="Vector" d="M19.9718 19.6344V20.1344H20.4718H23.1046C23.2173 20.1344 23.3181 20.176 23.3863 20.239C23.4532 20.3006 23.4823 20.3752 23.4823 20.4434C23.4823 20.5116 23.4532 20.5861 23.3863 20.6478C23.3181 20.7107 23.2173 20.7524 23.1046 20.7524H20.4718H19.9718V21.2524V23.6793C19.9718 23.7476 19.9428 23.8221 19.8758 23.8837C19.8076 23.9467 19.7069 23.9883 19.5942 23.9883C19.4815 23.9883 19.3807 23.9467 19.3125 23.8837C19.2456 23.8221 19.2165 23.7476 19.2165 23.6793V21.2524V20.7524H18.7165H16.0837C15.971 20.7524 15.8703 20.7107 15.802 20.6478C15.7351 20.5861 15.7061 20.5116 15.7061 20.4434C15.7061 20.3752 15.7351 20.3006 15.802 20.239C15.8703 20.176 15.971 20.1344 16.0837 20.1344H18.7165H19.2165V19.6344V17.2074C19.2165 17.1392 19.2456 17.0647 19.3125 17.003C19.3807 16.9401 19.4815 16.8984 19.5942 16.8984C19.7069 16.8984 19.8076 16.9401 19.8758 17.003C19.9428 17.0647 19.9718 17.1392 19.9718 17.2074V19.6344Z" fill="#37474F" stroke="#37474F"/>
<path id="Vector_2" d="M5.58764 9.92635C6.2339 9.92635 6.7578 9.44342 6.7578 8.84769C6.7578 8.25197 6.2339 7.76904 5.58764 7.76904C4.94138 7.76904 4.41748 8.25197 4.41748 8.84769C4.41748 9.44342 4.94138 9.92635 5.58764 9.92635Z" fill="#37474F"/>
<path id="Vector_3" d="M5.58764 14.2413C6.2339 14.2413 6.7578 13.7584 6.7578 13.1626C6.7578 12.5669 6.2339 12.084 5.58764 12.084C4.94138 12.084 4.41748 12.5669 4.41748 13.1626C4.41748 13.7584 4.94138 14.2413 5.58764 14.2413Z" fill="#37474F"/>
<path id="Vector_4" d="M11.4382 9.92635C12.0845 9.92635 12.6084 9.44342 12.6084 8.84769C12.6084 8.25197 12.0845 7.76904 11.4382 7.76904C10.792 7.76904 10.2681 8.25197 10.2681 8.84769C10.2681 9.44342 10.792 9.92635 11.4382 9.92635Z" fill="#37474F"/>
<path id="Vector_5" d="M11.4382 14.2413C12.0845 14.2413 12.6084 13.7584 12.6084 13.1626C12.6084 12.5669 12.0845 12.084 11.4382 12.084C10.792 12.084 10.2681 12.5669 10.2681 13.1626C10.2681 13.7584 10.792 14.2413 11.4382 14.2413Z" fill="#37474F"/>
<path id="Vector_6" d="M11.4382 18.5557C12.0845 18.5557 12.6084 18.0728 12.6084 17.4771C12.6084 16.8814 12.0845 16.3984 11.4382 16.3984C10.792 16.3984 10.2681 16.8814 10.2681 17.4771C10.2681 18.0728 10.792 18.5557 11.4382 18.5557Z" fill="#37474F"/>
<path id="Vector_7" d="M17.2893 9.92635C17.9356 9.92635 18.4595 9.44342 18.4595 8.84769C18.4595 8.25197 17.9356 7.76904 17.2893 7.76904C16.643 7.76904 16.1191 8.25197 16.1191 8.84769C16.1191 9.44342 16.643 9.92635 17.2893 9.92635Z" fill="#37474F"/>
<path id="Vector_8" d="M17.2893 14.2413C17.9356 14.2413 18.4595 13.7584 18.4595 13.1626C18.4595 12.5669 17.9356 12.084 17.2893 12.084C16.643 12.084 16.1191 12.5669 16.1191 13.1626C16.1191 13.7584 16.643 14.2413 17.2893 14.2413Z" fill="#37474F"/>
<path id="Vector_9" d="M5.58764 18.5557C6.2339 18.5557 6.7578 18.0728 6.7578 17.4771C6.7578 16.8814 6.2339 16.3984 5.58764 16.3984C4.94138 16.3984 4.41748 16.8814 4.41748 17.4771C4.41748 18.0728 4.94138 18.5557 5.58764 18.5557Z" fill="#37474F"/>
<path id="Vector_10" d="M15.8264 4.53304V4.33889C16.9595 4.3179 18.0757 4.59475 19.0443 5.13708C19.4672 5.41895 19.8385 5.76124 20.1443 6.15102C20.6401 6.86068 20.919 7.68051 20.9517 8.52406C21.0842 10.0669 21.131 11.615 21.0921 13.1623V14.5861C21.0905 14.6927 21.1122 14.7986 21.1557 14.8974C21.1993 14.9962 21.2639 15.0859 21.3457 15.1614C21.4275 15.2368 21.5248 15.2963 21.632 15.3364C21.7392 15.3766 21.8541 15.3965 21.9697 15.3951C22.2005 15.3951 22.422 15.3113 22.5862 15.1619C22.7505 15.0126 22.8443 14.8096 22.8474 14.5969V13.1083C22.8474 11.1344 22.8474 9.58114 22.7069 8.35147C22.6309 7.22375 22.2267 6.13572 21.5368 5.2018C21.1267 4.67281 20.6245 4.20995 20.0507 3.83192C18.7776 3.10153 17.3022 2.72687 15.803 2.75327V1.34024C15.803 1.12568 15.7105 0.919907 15.5459 0.768193C15.3814 0.616478 15.1581 0.53125 14.9254 0.53125C14.6926 0.53125 14.4694 0.616478 14.3048 0.768193C14.1402 0.919907 14.0477 1.12568 14.0477 1.34024V2.69935H8.78202V1.34024C8.78202 1.12568 8.68956 0.919907 8.52497 0.768193C8.36039 0.616478 8.13716 0.53125 7.9044 0.53125C7.67164 0.53125 7.44843 0.616478 7.28384 0.768193C7.11925 0.919907 7.02678 1.12568 7.02678 1.34024V2.75327C5.52755 2.72687 4.05216 3.10153 2.77911 3.83192C2.20524 4.20995 1.7031 4.67281 1.293 5.2018C0.603061 6.13572 0.198841 7.22375 0.122835 8.35147C-0.0175838 9.58114 -0.0175781 11.1344 -0.0175781 13.1083V13.2162C-0.0175781 15.1901 -0.0175838 16.7434 0.122835 17.973C0.198841 19.1008 0.603061 20.1888 1.293 21.1227C1.7031 21.6517 2.20524 22.1145 2.77911 22.4926C3.79225 23.1286 4.97257 23.5012 6.19597 23.5712C7.52996 23.7007 9.21499 23.7007 11.3564 23.7007H12.9712C13.204 23.7007 13.4272 23.6154 13.5918 23.4637C13.7564 23.312 13.8488 23.1062 13.8488 22.8917C13.8488 22.6771 13.7564 22.4714 13.5918 22.3197C13.4272 22.1679 13.204 22.0827 12.9712 22.0827H11.4032C9.72466 22.1186 8.04524 22.0754 6.37149 21.9533C5.45637 21.9231 4.56701 21.666 3.79714 21.209C3.37429 20.9271 3.00297 20.5848 2.69719 20.195C2.20139 19.4854 1.92245 18.6656 1.88977 17.822C1.70254 14.7323 1.70254 11.6354 1.88977 8.54562C1.92245 7.70207 2.20139 6.88224 2.69719 6.17258C3.00297 5.7828 3.37429 5.44054 3.79714 5.15867C4.7658 4.61634 5.88197 4.33946 7.01508 4.36045V4.5546C7.01508 4.76916 7.10754 4.97493 7.27213 5.12665C7.43671 5.27836 7.65994 5.36359 7.8927 5.36359C8.12546 5.36359 8.34869 5.27836 8.51328 5.12665C8.67787 4.97493 8.77032 4.76916 8.77032 4.5546V4.29573H14.036V4.5546C14.036 4.76916 14.1285 4.97493 14.2931 5.12665C14.4577 5.27836 14.6809 5.36359 14.9137 5.36359C15.1464 5.36359 15.3697 5.27836 15.5342 5.12665C15.6988 4.97493 15.7913 4.76916 15.7913 4.5546L15.8264 4.53304Z" fill="#37474F"/>
</g>
<defs>
<clipPath id="clip0_4428_1158">
<rect width="24" height="24" fill="white" transform="translate(0.0292969 0.488281)"/>
</clipPath>
</defs>
</svg>
