<svg width="25" height="25" viewBox="0 0 25 25" fill="none" xmlns="http://www.w3.org/2000/svg">
<g id="Hicon / Outline /teeth/down">
<g id="Vector">
<mask id="path-1-inside-1_4566_4747" fill="white">
<path d="M3.2293 12.4883C2.0193 12.4883 1.0293 13.4701 1.0293 14.6701V15.3974C1.0293 18.2039 3.3327 20.4883 6.16263 20.4883H17.896C20.7259 20.4883 23.0293 18.2039 23.0293 15.3974V14.6701C23.0293 13.4701 22.0393 12.4883 20.8293 12.4883C20.2646 12.4883 19.7513 12.706 19.3626 13.055C18.974 12.706 18.4606 12.4883 17.896 12.4883H17.1626C16.598 12.4883 16.0846 12.706 15.696 13.055C15.3073 12.706 14.794 12.4883 14.2293 12.4883H13.496C12.9313 12.4883 12.418 12.706 12.0293 13.055C11.6406 12.706 11.1273 12.4883 10.5626 12.4883H9.8293C9.26463 12.4883 8.7513 12.706 8.36263 13.055C7.97396 12.706 7.46063 12.4883 6.89596 12.4883H6.16263C5.59796 12.4883 5.08463 12.706 4.69596 13.055C4.3073 12.706 3.79396 12.4883 3.2293 12.4883ZM3.2293 13.9428C3.63263 13.9428 3.96263 14.2701 3.96263 14.6701C3.96263 15.0701 3.63263 15.3974 3.2293 15.3974C2.82596 15.3974 2.49596 15.0701 2.49596 14.6701C2.49596 14.2701 2.82596 13.9428 3.2293 13.9428ZM6.16263 13.9428H6.89596C7.2993 13.9428 7.6293 14.2701 7.6293 14.6701V15.3974C7.6293 15.7974 7.2993 16.1246 6.89596 16.1246C6.0893 16.1246 5.4293 15.4701 5.4293 14.6701C5.4293 14.2701 5.7593 13.9428 6.16263 13.9428ZM9.8293 13.9428H10.5626C10.966 13.9428 11.296 14.2701 11.296 14.6701V15.3974C11.296 15.7974 10.966 16.1246 10.5626 16.1246H9.8293C9.42596 16.1246 9.09596 15.7974 9.09596 15.3974V14.6701C9.09596 14.2701 9.42596 13.9428 9.8293 13.9428ZM13.496 13.9428H14.2293C14.6326 13.9428 14.9626 14.2701 14.9626 14.6701V15.3974C14.9626 15.7974 14.6326 16.1246 14.2293 16.1246H13.496C13.0926 16.1246 12.7626 15.7974 12.7626 15.3974V14.6701C12.7626 14.2701 13.0926 13.9428 13.496 13.9428ZM17.1626 13.9428H17.896C18.2993 13.9428 18.6293 14.2701 18.6293 14.6701C18.6293 15.4701 17.9693 16.1246 17.1626 16.1246C16.7593 16.1246 16.4293 15.7974 16.4293 15.3974V14.6701C16.4293 14.2701 16.7593 13.9428 17.1626 13.9428ZM20.8293 13.9428C21.2326 13.9428 21.5626 14.2701 21.5626 14.6701C21.5626 15.0701 21.2326 15.3974 20.8293 15.3974C20.426 15.3974 20.096 15.0701 20.096 14.6701C20.096 14.2701 20.426 13.9428 20.8293 13.9428ZM4.54987 16.4016C5.09254 17.1144 5.9353 17.5792 6.89596 17.5792C7.46063 17.5792 7.97396 17.3615 8.36263 17.0124C8.7513 17.3615 9.26463 17.5792 9.8293 17.5792H10.5626C11.1273 17.5792 11.6406 17.3615 12.0293 17.0124C12.418 17.3615 12.9313 17.5792 13.496 17.5792H14.2293C14.794 17.5792 15.3073 17.3615 15.696 17.0124C16.0846 17.3615 16.598 17.5792 17.1626 17.5792C18.1233 17.5792 18.9661 17.1144 19.5087 16.4016C19.8754 16.6853 20.3306 16.8519 20.8293 16.8519C20.9821 16.8519 21.1319 16.8363 21.2762 16.8065C20.7201 18.114 19.4144 19.0337 17.896 19.0337H6.16263C4.64421 19.0337 3.33853 18.114 2.78242 16.8065C2.92669 16.8363 3.07646 16.8519 3.2293 16.8519C3.72796 16.8519 4.1832 16.6853 4.54987 16.4016Z"/>
</mask>
<path d="M3.2293 12.4883C2.0193 12.4883 1.0293 13.4701 1.0293 14.6701V15.3974C1.0293 18.2039 3.3327 20.4883 6.16263 20.4883H17.896C20.7259 20.4883 23.0293 18.2039 23.0293 15.3974V14.6701C23.0293 13.4701 22.0393 12.4883 20.8293 12.4883C20.2646 12.4883 19.7513 12.706 19.3626 13.055C18.974 12.706 18.4606 12.4883 17.896 12.4883H17.1626C16.598 12.4883 16.0846 12.706 15.696 13.055C15.3073 12.706 14.794 12.4883 14.2293 12.4883H13.496C12.9313 12.4883 12.418 12.706 12.0293 13.055C11.6406 12.706 11.1273 12.4883 10.5626 12.4883H9.8293C9.26463 12.4883 8.7513 12.706 8.36263 13.055C7.97396 12.706 7.46063 12.4883 6.89596 12.4883H6.16263C5.59796 12.4883 5.08463 12.706 4.69596 13.055C4.3073 12.706 3.79396 12.4883 3.2293 12.4883ZM3.2293 13.9428C3.63263 13.9428 3.96263 14.2701 3.96263 14.6701C3.96263 15.0701 3.63263 15.3974 3.2293 15.3974C2.82596 15.3974 2.49596 15.0701 2.49596 14.6701C2.49596 14.2701 2.82596 13.9428 3.2293 13.9428ZM6.16263 13.9428H6.89596C7.2993 13.9428 7.6293 14.2701 7.6293 14.6701V15.3974C7.6293 15.7974 7.2993 16.1246 6.89596 16.1246C6.0893 16.1246 5.4293 15.4701 5.4293 14.6701C5.4293 14.2701 5.7593 13.9428 6.16263 13.9428ZM9.8293 13.9428H10.5626C10.966 13.9428 11.296 14.2701 11.296 14.6701V15.3974C11.296 15.7974 10.966 16.1246 10.5626 16.1246H9.8293C9.42596 16.1246 9.09596 15.7974 9.09596 15.3974V14.6701C9.09596 14.2701 9.42596 13.9428 9.8293 13.9428ZM13.496 13.9428H14.2293C14.6326 13.9428 14.9626 14.2701 14.9626 14.6701V15.3974C14.9626 15.7974 14.6326 16.1246 14.2293 16.1246H13.496C13.0926 16.1246 12.7626 15.7974 12.7626 15.3974V14.6701C12.7626 14.2701 13.0926 13.9428 13.496 13.9428ZM17.1626 13.9428H17.896C18.2993 13.9428 18.6293 14.2701 18.6293 14.6701C18.6293 15.4701 17.9693 16.1246 17.1626 16.1246C16.7593 16.1246 16.4293 15.7974 16.4293 15.3974V14.6701C16.4293 14.2701 16.7593 13.9428 17.1626 13.9428ZM20.8293 13.9428C21.2326 13.9428 21.5626 14.2701 21.5626 14.6701C21.5626 15.0701 21.2326 15.3974 20.8293 15.3974C20.426 15.3974 20.096 15.0701 20.096 14.6701C20.096 14.2701 20.426 13.9428 20.8293 13.9428ZM4.54987 16.4016C5.09254 17.1144 5.9353 17.5792 6.89596 17.5792C7.46063 17.5792 7.97396 17.3615 8.36263 17.0124C8.7513 17.3615 9.26463 17.5792 9.8293 17.5792H10.5626C11.1273 17.5792 11.6406 17.3615 12.0293 17.0124C12.418 17.3615 12.9313 17.5792 13.496 17.5792H14.2293C14.794 17.5792 15.3073 17.3615 15.696 17.0124C16.0846 17.3615 16.598 17.5792 17.1626 17.5792C18.1233 17.5792 18.9661 17.1144 19.5087 16.4016C19.8754 16.6853 20.3306 16.8519 20.8293 16.8519C20.9821 16.8519 21.1319 16.8363 21.2762 16.8065C20.7201 18.114 19.4144 19.0337 17.896 19.0337H6.16263C4.64421 19.0337 3.33853 18.114 2.78242 16.8065C2.92669 16.8363 3.07646 16.8519 3.2293 16.8519C3.72796 16.8519 4.1832 16.6853 4.54987 16.4016Z" fill="white"/>
<path d="M19.3626 13.055L2.65727 31.6543L19.3626 46.6586L36.068 31.6543L19.3626 13.055ZM15.696 13.055L-1.0094 31.6543L15.696 46.6586L32.4013 31.6543L15.696 13.055ZM12.0293 13.055L-4.67607 31.6543L12.0293 46.6586L28.7347 31.6543L12.0293 13.055ZM8.36263 13.055L-8.34273 31.6543L8.36263 46.6586L25.068 31.6543L8.36263 13.055ZM4.69596 13.055L-12.0094 31.6543L4.69596 46.6586L21.4013 31.6543L4.69596 13.055ZM4.54987 16.4016L24.4406 1.25697L9.17956 -18.7865L-10.7465 -3.37258L4.54987 16.4016ZM8.36263 17.0124L25.068 -1.58679L8.36263 -16.5911L-8.34273 -1.58679L8.36263 17.0124ZM12.0293 17.0124L28.7347 -1.58679L12.0293 -16.5911L-4.67607 -1.58679L12.0293 17.0124ZM15.696 17.0124L32.4013 -1.58679L15.696 -16.5911L-1.0094 -1.58679L15.696 17.0124ZM19.5087 16.4016L34.8051 -3.37258L14.879 -18.7865L-0.381961 1.25698L19.5087 16.4016ZM21.2762 16.8065L44.2818 26.5911L62.9618 -17.3291L16.2204 -7.67697L21.2762 16.8065ZM2.78242 16.8065L7.83825 -7.67697L-38.9032 -17.3291L-20.2232 26.5911L2.78242 16.8065ZM3.2293 -12.5117C-11.5918 -12.5117 -23.9707 -0.532214 -23.9707 14.6701H26.0293C26.0293 27.4724 15.6304 37.4883 3.2293 37.4883V-12.5117ZM-23.9707 14.6701V15.3974H26.0293V14.6701H-23.9707ZM-23.9707 15.3974C-23.9707 32.2062 -10.2784 45.4883 6.16263 45.4883V-4.51172C16.9438 -4.51172 26.0293 4.2016 26.0293 15.3974H-23.9707ZM6.16263 45.4883H17.896V-4.51172H6.16263V45.4883ZM17.896 45.4883C34.337 45.4883 48.0293 32.2062 48.0293 15.3974H-1.9707C-1.9707 4.2016 7.11478 -4.51172 17.896 -4.51172V45.4883ZM48.0293 15.3974V14.6701H-1.9707V15.3974H48.0293ZM48.0293 14.6701C48.0293 -0.532214 35.6504 -12.5117 20.8293 -12.5117V37.4883C8.42818 37.4883 -1.9707 27.4724 -1.9707 14.6701H48.0293ZM20.8293 -12.5117C13.6997 -12.5117 7.32963 -9.74078 2.65727 -5.54417L36.068 31.6543C32.173 35.1527 26.8295 37.4883 20.8293 37.4883V-12.5117ZM36.068 -5.54417C31.3956 -9.74078 25.0255 -12.5117 17.896 -12.5117V37.4883C11.8957 37.4883 6.5523 35.1527 2.65727 31.6543L36.068 -5.54417ZM17.896 -12.5117H17.1626V37.4883H17.896V-12.5117ZM17.1626 -12.5117C10.0331 -12.5117 3.66296 -9.74078 -1.0094 -5.54417L32.4013 31.6543C28.5063 35.1527 23.1629 37.4883 17.1626 37.4883V-12.5117ZM32.4013 -5.54417C27.729 -9.74078 21.3589 -12.5117 14.2293 -12.5117V37.4883C8.22907 37.4883 2.88563 35.1527 -1.0094 31.6543L32.4013 -5.54417ZM14.2293 -12.5117H13.496V37.4883H14.2293V-12.5117ZM13.496 -12.5117C6.3664 -12.5117 -0.00370276 -9.74078 -4.67607 -5.54417L28.7347 31.6543C24.8396 35.1527 19.4962 37.4883 13.496 37.4883V-12.5117ZM28.7347 -5.54417C24.0623 -9.74078 17.6922 -12.5117 10.5626 -12.5117V37.4883C4.5624 37.4883 -0.781036 35.1527 -4.67607 31.6543L28.7347 -5.54417ZM10.5626 -12.5117H9.8293V37.4883H10.5626V-12.5117ZM9.8293 -12.5117C2.69974 -12.5117 -3.67037 -9.74078 -8.34273 -5.54417L25.068 31.6543C21.173 35.1527 15.8295 37.4883 9.8293 37.4883V-12.5117ZM25.068 -5.54417C20.3956 -9.74078 14.0255 -12.5117 6.89596 -12.5117V37.4883C0.895736 37.4883 -4.4477 35.1527 -8.34273 31.6543L25.068 -5.54417ZM6.89596 -12.5117H6.16263V37.4883H6.89596V-12.5117ZM6.16263 -12.5117C-0.966931 -12.5117 -7.33704 -9.74078 -12.0094 -5.54417L21.4013 31.6543C17.5063 35.1527 12.1629 37.4883 6.16263 37.4883V-12.5117ZM21.4013 -5.54417C16.729 -9.74078 10.3589 -12.5117 3.2293 -12.5117V37.4883C-2.77093 37.4883 -8.11437 35.1527 -12.0094 31.6543L21.4013 -5.54417ZM3.2293 38.9428C-9.97848 38.9428 -21.0374 28.2724 -21.0374 14.6701H28.9626C28.9626 0.267785 17.2437 -11.0572 3.2293 -11.0572V38.9428ZM-21.0374 14.6701C-21.0374 1.06779 -9.97848 -9.60263 3.2293 -9.60263V40.3974C17.2437 40.3974 28.9626 29.0724 28.9626 14.6701H-21.0374ZM3.2293 -9.60263C16.4371 -9.60263 27.496 1.06779 27.496 14.6701H-22.504C-22.504 29.0724 -10.7851 40.3974 3.2293 40.3974V-9.60263ZM27.496 14.6701C27.496 28.2724 16.4371 38.9428 3.2293 38.9428V-11.0572C-10.7851 -11.0572 -22.504 0.267785 -22.504 14.6701H27.496ZM6.16263 38.9428H6.89596V-11.0572H6.16263V38.9428ZM6.89596 38.9428C-6.31182 38.9428 -17.3707 28.2724 -17.3707 14.6701H32.6293C32.6293 0.267785 20.9104 -11.0572 6.89596 -11.0572V38.9428ZM-17.3707 14.6701V15.3974H32.6293V14.6701H-17.3707ZM-17.3707 15.3974C-17.3707 1.79506 -6.31182 -8.87535 6.89596 -8.87535V41.1246C20.9104 41.1246 32.6293 29.7997 32.6293 15.3974H-17.3707ZM6.89596 -8.87535C19.7004 -8.87535 30.4293 1.46779 30.4293 14.6701H-19.5707C-19.5707 29.4724 -7.52182 41.1246 6.89596 41.1246V-8.87535ZM30.4293 14.6701C30.4293 28.2724 19.3704 38.9428 6.16263 38.9428V-11.0572C-7.85182 -11.0572 -19.5707 0.267785 -19.5707 14.6701H30.4293ZM9.8293 38.9428H10.5626V-11.0572H9.8293V38.9428ZM10.5626 38.9428C-2.64515 38.9428 -13.704 28.2724 -13.704 14.6701H36.296C36.296 0.267785 24.5771 -11.0572 10.5626 -11.0572V38.9428ZM-13.704 14.6701V15.3974H36.296V14.6701H-13.704ZM-13.704 15.3974C-13.704 1.79506 -2.64515 -8.87535 10.5626 -8.87535V41.1246C24.5771 41.1246 36.296 29.7997 36.296 15.3974H-13.704ZM10.5626 -8.87535H9.8293V41.1246H10.5626V-8.87535ZM9.8293 -8.87535C23.0371 -8.87535 34.096 1.79506 34.096 15.3974H-15.904C-15.904 29.7997 -4.18515 41.1246 9.8293 41.1246V-8.87535ZM34.096 15.3974V14.6701H-15.904V15.3974H34.096ZM34.096 14.6701C34.096 28.2724 23.0371 38.9428 9.8293 38.9428V-11.0572C-4.18515 -11.0572 -15.904 0.267785 -15.904 14.6701H34.096ZM13.496 38.9428H14.2293V-11.0572H13.496V38.9428ZM14.2293 38.9428C1.02152 38.9428 -10.0374 28.2724 -10.0374 14.6701H39.9626C39.9626 0.267785 28.2437 -11.0572 14.2293 -11.0572V38.9428ZM-10.0374 14.6701V15.3974H39.9626V14.6701H-10.0374ZM-10.0374 15.3974C-10.0374 1.79506 1.02152 -8.87535 14.2293 -8.87535V41.1246C28.2437 41.1246 39.9626 29.7997 39.9626 15.3974H-10.0374ZM14.2293 -8.87535H13.496V41.1246H14.2293V-8.87535ZM13.496 -8.87535C26.7037 -8.87535 37.7626 1.79506 37.7626 15.3974H-12.2374C-12.2374 29.7997 -0.518482 41.1246 13.496 41.1246V-8.87535ZM37.7626 15.3974V14.6701H-12.2374V15.3974H37.7626ZM37.7626 14.6701C37.7626 28.2724 26.7037 38.9428 13.496 38.9428V-11.0572C-0.518482 -11.0572 -12.2374 0.267785 -12.2374 14.6701H37.7626ZM17.1626 38.9428H17.896V-11.0572H17.1626V38.9428ZM17.896 38.9428C4.68818 38.9428 -6.3707 28.2724 -6.3707 14.6701H43.6293C43.6293 0.267785 31.9104 -11.0572 17.896 -11.0572V38.9428ZM-6.3707 14.6701C-6.3707 1.46779 4.35818 -8.87535 17.1626 -8.87535V41.1246C31.5804 41.1246 43.6293 29.4724 43.6293 14.6701H-6.3707ZM17.1626 -8.87535C30.3704 -8.87535 41.4293 1.79506 41.4293 15.3974H-8.5707C-8.5707 29.7997 3.14818 41.1246 17.1626 41.1246V-8.87535ZM41.4293 15.3974V14.6701H-8.5707V15.3974H41.4293ZM41.4293 14.6701C41.4293 28.2724 30.3704 38.9428 17.1626 38.9428V-11.0572C3.14818 -11.0572 -8.5707 0.267785 -8.5707 14.6701H41.4293ZM20.8293 38.9428C7.62152 38.9428 -3.43737 28.2724 -3.43737 14.6701H46.5626C46.5626 0.267785 34.8437 -11.0572 20.8293 -11.0572V38.9428ZM-3.43737 14.6701C-3.43737 1.06779 7.62152 -9.60263 20.8293 -9.60263V40.3974C34.8437 40.3974 46.5626 29.0724 46.5626 14.6701H-3.43737ZM20.8293 -9.60263C34.0371 -9.60263 45.096 1.06779 45.096 14.6701H-4.90404C-4.90404 29.0724 6.81485 40.3974 20.8293 40.3974V-9.60263ZM45.096 14.6701C45.096 28.2724 34.0371 38.9428 20.8293 38.9428V-11.0572C6.81485 -11.0572 -4.90404 0.267785 -4.90404 14.6701H45.096ZM-15.3408 31.5463C-10.4266 38.0005 -2.44051 42.5792 6.89596 42.5792V-7.42081C14.3111 -7.42081 20.6117 -3.77175 24.4406 1.25697L-15.3408 31.5463ZM6.89596 42.5792C14.0255 42.5792 20.3956 39.8082 25.068 35.6116L-8.34273 -1.58679C-4.4477 -5.08521 0.895736 -7.42081 6.89596 -7.42081V42.5792ZM-8.34273 35.6116C-3.67037 39.8082 2.69974 42.5792 9.8293 42.5792V-7.42081C15.8295 -7.42081 21.173 -5.08521 25.068 -1.58679L-8.34273 35.6116ZM9.8293 42.5792H10.5626V-7.42081H9.8293V42.5792ZM10.5626 42.5792C17.6922 42.5792 24.0623 39.8082 28.7347 35.6116L-4.67607 -1.58679C-0.781036 -5.08521 4.5624 -7.42081 10.5626 -7.42081V42.5792ZM-4.67607 35.6116C-0.00370276 39.8082 6.3664 42.5792 13.496 42.5792V-7.42081C19.4962 -7.42081 24.8396 -5.08521 28.7347 -1.58679L-4.67607 35.6116ZM13.496 42.5792H14.2293V-7.42081H13.496V42.5792ZM14.2293 42.5792C21.3589 42.5792 27.729 39.8082 32.4013 35.6116L-1.0094 -1.58679C2.88563 -5.08521 8.22907 -7.42081 14.2293 -7.42081V42.5792ZM-1.0094 35.6116C3.66296 39.8082 10.0331 42.5792 17.1626 42.5792V-7.42081C23.1629 -7.42081 28.5063 -5.08521 32.4013 -1.58679L-1.0094 35.6116ZM17.1626 42.5792C26.4991 42.5792 34.4852 38.0005 39.3994 31.5463L-0.381961 1.25698C3.44689 -3.77176 9.74749 -7.42081 17.1626 -7.42081V42.5792ZM4.21231 36.1758C8.81353 39.7351 14.6134 41.8519 20.8293 41.8519V-8.14808C26.0479 -8.14808 30.9372 -6.3646 34.8051 -3.37258L4.21231 36.1758ZM20.8293 41.8519C22.6893 41.8519 24.533 41.6614 26.332 41.2899L16.2204 -7.67697C17.7308 -7.98889 19.2749 -8.14808 20.8293 -8.14808V41.8519ZM-1.72949 7.02181C1.52704 -0.634945 9.10734 -5.96626 17.896 -5.96626V44.0337C29.7214 44.0337 39.9131 36.8629 44.2818 26.5911L-1.72949 7.02181ZM17.896 -5.96626H6.16263V44.0337H17.896V-5.96626ZM6.16263 -5.96626C14.9513 -5.96626 22.5316 -0.634944 25.7881 7.02181L-20.2232 26.5911C-15.8545 36.8629 -5.66283 44.0337 6.16263 44.0337V-5.96626ZM-2.2734 41.2899C-0.474374 41.6614 1.36926 41.8519 3.2293 41.8519V-8.14808C4.78365 -8.14808 6.32775 -7.98889 7.83825 -7.67697L-2.2734 41.2899ZM3.2293 41.8519C9.4452 41.8519 15.2451 39.7351 19.8463 36.1758L-10.7465 -3.37258C-6.87865 -6.36461 -1.98927 -8.14808 3.2293 -8.14808V41.8519Z" fill="#2B70C9" mask="url(#path-1-inside-1_4566_4747)"/>
</g>
</g>
</svg>
