<svg width="12" height="7" viewBox="0 0 12 7" fill="none" xmlns="http://www.w3.org/2000/svg">
<g id="Down 2">
<path id="Vector" d="M11.562 2.01624C11.8536 1.72204 11.8515 1.24717 11.5573 0.95559C11.2631 0.664007 10.7882 0.666126 10.4966 0.960323L8.7493 2.72329C8.04016 3.43879 7.55212 3.92959 7.13859 4.26169C6.7369 4.58429 6.47888 4.69496 6.2478 4.72441C6.1027 4.74291 5.95589 4.74291 5.81079 4.72441C5.57971 4.69496 5.3217 4.58429 4.92 4.26169C4.50647 3.92959 4.01843 3.43879 3.3093 2.72329L1.56199 0.960323C1.2704 0.666126 0.795535 0.664008 0.501338 0.955591C0.207141 1.24717 0.205023 1.72204 0.496606 2.01624L2.27539 3.81097C2.94534 4.48694 3.49288 5.03942 3.98076 5.43123C4.48808 5.83865 5.00302 6.13359 5.62114 6.21237C5.89216 6.24692 6.16643 6.24692 6.43746 6.21237C7.05557 6.13359 7.57051 5.83865 8.07784 5.43122C8.56571 5.03942 9.11325 4.48695 9.7832 3.81098L11.562 2.01624Z" fill="#2D264B"/>
</g>
</svg>
