<svg width="18" height="19" viewBox="0 0 18 19" fill="none" xmlns="http://www.w3.org/2000/svg">
<g id="Edit 2">
<path id="Vector" d="M6.56048 16.5203L6.28755 15.8218L6.56048 16.5203ZM2.50408 17.2993L2.12908 17.9488L2.12908 17.9488L2.50408 17.2993ZM1.15046 13.3969L0.409012 13.5098L1.15046 13.3969ZM1.64076 10.7946L2.29028 11.1696L1.64076 10.7946ZM1.05661 12.0319L0.319578 11.893H0.319577L1.05661 12.0319ZM8.56896 14.7946L9.21848 15.1696L8.56896 14.7946ZM7.78954 15.9191L8.27831 16.488H8.27831L7.78954 15.9191ZM5.4392 4.21552L4.78968 3.84052L5.4392 4.21552ZM16.4392 18.5014C16.8534 18.5014 17.1892 18.1656 17.1892 17.7514C17.1892 17.3372 16.8534 17.0014 16.4392 17.0014V18.5014ZM10.4392 17.0014C10.025 17.0014 9.6892 17.3372 9.6892 17.7514C9.6892 18.1656 10.025 18.5014 10.4392 18.5014V17.0014ZM11.7179 7.84052L7.91944 14.4196L9.21848 15.1696L13.0169 8.59052L11.7179 7.84052ZM2.29028 11.1696L6.08872 4.59052L4.78968 3.84052L0.99124 10.4196L2.29028 11.1696ZM6.28755 15.8218C5.19108 16.2502 4.44432 16.5399 3.86784 16.6746C3.31097 16.8047 3.05828 16.7532 2.87908 16.6498L2.12908 17.9488C2.78235 18.326 3.48322 18.3049 4.2091 18.1353C4.91539 17.9703 5.78059 17.6303 6.83341 17.2189L6.28755 15.8218ZM0.409012 13.5098C0.5792 14.6272 0.717345 15.5465 0.927582 16.2407C1.14365 16.9541 1.47581 17.5716 2.12908 17.9488L2.87908 16.6498C2.69988 16.5463 2.52895 16.3532 2.36319 15.8059C2.19159 15.2393 2.06916 14.4477 1.89191 13.2839L0.409012 13.5098ZM0.99124 10.4196C0.669419 10.977 0.411754 11.4038 0.319578 11.893L1.79364 12.1707C1.8276 11.9905 1.91732 11.8156 2.29028 11.1696L0.99124 10.4196ZM1.89191 13.2839C1.7796 12.5465 1.75969 12.3509 1.79364 12.1707L0.319577 11.893C0.227401 12.3822 0.3121 12.8735 0.409012 13.5098L1.89191 13.2839ZM7.91944 14.4196C7.54648 15.0656 7.43985 15.2308 7.30076 15.3503L8.27831 16.488C8.65591 16.1635 8.89666 15.727 9.21848 15.1696L7.91944 14.4196ZM6.83341 17.2189C7.43292 16.9847 7.90072 16.8124 8.27831 16.488L7.30076 15.3503C7.16167 15.4698 6.98233 15.5503 6.28755 15.8218L6.83341 17.2189ZM10.5283 3.40093C11.3632 3.88294 11.9232 4.2081 12.309 4.50586C12.6776 4.79032 12.7951 4.98193 12.8428 5.15994L14.2916 4.77171C14.1249 4.14953 13.7269 3.70533 13.2254 3.31834C12.7412 2.94465 12.0764 2.5627 11.2783 2.1019L10.5283 3.40093ZM13.0169 8.59052C13.4777 7.79238 13.8624 7.12924 14.095 6.56348C14.3358 5.9776 14.4584 5.3939 14.2916 4.77171L12.8428 5.15994C12.8905 5.33796 12.8846 5.56261 12.7076 5.99327C12.5223 6.44406 12.1999 7.00566 11.7179 7.84052L13.0169 8.59052ZM11.2783 2.1019C10.4802 1.64109 9.81702 1.25639 9.25127 1.02386C8.66538 0.783061 8.08168 0.660456 7.4595 0.82717L7.84772 2.27606C8.02574 2.22836 8.25039 2.23425 8.68105 2.41125C9.13184 2.59653 9.69344 2.91893 10.5283 3.40093L11.2783 2.1019ZM6.08872 4.59052C6.57072 3.75566 6.89588 3.19565 7.19364 2.8098C7.4781 2.44118 7.66971 2.32376 7.84772 2.27606L7.4595 0.82717C6.83731 0.993883 6.39312 1.39191 6.00612 1.89339C5.63243 2.37764 5.25048 3.04238 4.78968 3.84052L6.08872 4.59052ZM12.7424 7.566L5.8142 3.566L5.0642 4.86504L11.9924 8.86504L12.7424 7.566ZM16.4392 17.0014H10.4392V18.5014H16.4392V17.0014Z" fill="#546E7A"/>
</g>
</svg>
