<svg width="25" height="25" viewBox="0 0 25 25" fill="none" xmlns="http://www.w3.org/2000/svg">
<g id="Hicon / Outline /teeth/mouth">
<g id="Vector">
<mask id="path-1-inside-1_4566_4742" fill="white">
<path d="M7.6293 4.48828C3.9905 4.48828 1.0293 7.42428 1.0293 11.0337V11.761C1.0293 12.321 1.25074 12.8282 1.60365 13.2156C1.25074 13.6029 1.0293 14.1101 1.0293 14.6701V15.3974C1.0293 18.2039 3.33196 20.4883 6.16263 20.4883H17.896C20.7266 20.4883 23.0293 18.2039 23.0293 15.3974V14.6701C23.0293 14.1101 22.8079 13.6029 22.4549 13.2156C22.8079 12.8282 23.0293 12.321 23.0293 11.761V11.0337C23.0293 7.42428 20.0681 4.48828 16.4293 4.48828H7.6293ZM7.6293 5.94283H16.4293C18.4817 5.94283 20.252 7.14591 21.0728 8.87607C20.9919 8.86703 20.9125 8.85192 20.8293 8.85192C20.382 8.85192 19.9708 8.983 19.6262 9.20845C19.1642 8.55391 18.3946 8.12464 17.5293 8.12464C16.972 8.12464 16.4591 8.30658 16.0411 8.60476C15.5865 7.88476 14.7793 7.39737 13.8626 7.39737C13.144 7.39737 12.4986 7.69595 12.0293 8.16868C11.56 7.69595 10.9146 7.39737 10.196 7.39737C9.2793 7.39737 8.47211 7.88476 8.01745 8.60476C7.59945 8.30658 7.08663 8.12464 6.5293 8.12464C5.66396 8.12464 4.89442 8.55391 4.43242 9.20845C4.08776 8.983 3.67663 8.85192 3.2293 8.85192C3.14609 8.85192 3.06669 8.86703 2.98581 8.87607C3.8066 7.14591 5.57688 5.94283 7.6293 5.94283ZM10.196 8.85192C10.8046 8.85192 11.296 9.33919 11.296 9.94283V11.761C11.296 12.161 10.966 12.4883 10.5626 12.4883H9.8293C9.42596 12.4883 9.09596 12.161 9.09596 11.761V9.94283C9.09596 9.33919 9.5873 8.85192 10.196 8.85192ZM13.8626 8.85192C14.4713 8.85192 14.9626 9.33919 14.9626 9.94283V11.761C14.9626 12.161 14.6326 12.4883 14.2293 12.4883H13.496C13.0926 12.4883 12.7626 12.161 12.7626 11.761V9.94283C12.7626 9.33919 13.254 8.85192 13.8626 8.85192ZM6.5293 9.57919C7.13796 9.57919 7.6293 10.0665 7.6293 10.6701V11.761C7.6293 12.161 7.2993 12.4883 6.89596 12.4883H6.16263C5.7593 12.4883 5.4293 12.161 5.4293 11.761V10.6701C5.4293 10.0665 5.92063 9.57919 6.5293 9.57919ZM17.5293 9.57919C18.138 9.57919 18.6293 10.0665 18.6293 10.6701V11.761C18.6293 12.161 18.2993 12.4883 17.896 12.4883H17.1626C16.7593 12.4883 16.4293 12.161 16.4293 11.761V10.6701C16.4293 10.0665 16.9206 9.57919 17.5293 9.57919ZM3.2293 10.3065C3.63263 10.3065 3.96263 10.6337 3.96263 11.0337V11.761C3.96263 12.161 3.63263 12.4883 3.2293 12.4883C2.82596 12.4883 2.49596 12.161 2.49596 11.761V11.0337C2.49596 10.6337 2.82596 10.3065 3.2293 10.3065ZM20.8293 10.3065C21.2326 10.3065 21.5626 10.6337 21.5626 11.0337V11.761C21.5626 12.161 21.2326 12.4883 20.8293 12.4883C20.426 12.4883 20.096 12.161 20.096 11.761V11.0337C20.096 10.6337 20.426 10.3065 20.8293 10.3065ZM3.2293 13.9428C3.63263 13.9428 3.96263 14.2701 3.96263 14.6701C3.96263 15.0701 3.63263 15.3974 3.2293 15.3974C2.82596 15.3974 2.49596 15.0701 2.49596 14.6701C2.49596 14.2701 2.82596 13.9428 3.2293 13.9428ZM6.16263 13.9428H6.89596C7.2993 13.9428 7.6293 14.2701 7.6293 14.6701V15.3974C7.6293 15.7974 7.2993 16.1246 6.89596 16.1246C6.0893 16.1246 5.4293 15.4701 5.4293 14.6701C5.4293 14.2701 5.7593 13.9428 6.16263 13.9428ZM9.8293 13.9428H10.5626C10.966 13.9428 11.296 14.2701 11.296 14.6701V15.3974C11.296 15.7974 10.966 16.1246 10.5626 16.1246H9.8293C9.42596 16.1246 9.09596 15.7974 9.09596 15.3974V14.6701C9.09596 14.2701 9.42596 13.9428 9.8293 13.9428ZM13.496 13.9428H14.2293C14.6326 13.9428 14.9626 14.2701 14.9626 14.6701V15.3974C14.9626 15.7974 14.6326 16.1246 14.2293 16.1246H13.496C13.0926 16.1246 12.7626 15.7974 12.7626 15.3974V14.6701C12.7626 14.2701 13.0926 13.9428 13.496 13.9428ZM17.1626 13.9428H17.896C18.2993 13.9428 18.6293 14.2701 18.6293 14.6701C18.6293 15.4701 17.9693 16.1246 17.1626 16.1246C16.7593 16.1246 16.4293 15.7974 16.4293 15.3974V14.6701C16.4293 14.2701 16.7593 13.9428 17.1626 13.9428ZM20.8293 13.9428C21.2326 13.9428 21.5626 14.2701 21.5626 14.6701C21.5626 15.0701 21.2326 15.3974 20.8293 15.3974C20.426 15.3974 20.096 15.0701 20.096 14.6701C20.096 14.2701 20.426 13.9428 20.8293 13.9428ZM4.54987 16.4016C5.09254 17.1144 5.9353 17.5792 6.89596 17.5792C7.46063 17.5792 7.97396 17.3615 8.36263 17.0124C8.7513 17.3615 9.26463 17.5792 9.8293 17.5792H10.5626C11.1273 17.5792 11.6406 17.3615 12.0293 17.0124C12.418 17.3615 12.9313 17.5792 13.496 17.5792H14.2293C14.794 17.5792 15.3073 17.3615 15.696 17.0124C16.0846 17.3615 16.598 17.5792 17.1626 17.5792C18.1233 17.5792 18.9661 17.1144 19.5087 16.4016C19.8754 16.6853 20.3306 16.8519 20.8293 16.8519C20.9821 16.8519 21.1319 16.8363 21.2762 16.8065C20.7201 18.114 19.4144 19.0337 17.896 19.0337H6.16263C4.64421 19.0337 3.33853 18.114 2.78242 16.8065C2.92669 16.8363 3.07646 16.8519 3.2293 16.8519C3.72796 16.8519 4.1832 16.6853 4.54987 16.4016Z"/>
</mask>
<path d="M7.6293 4.48828C3.9905 4.48828 1.0293 7.42428 1.0293 11.0337V11.761C1.0293 12.321 1.25074 12.8282 1.60365 13.2156C1.25074 13.6029 1.0293 14.1101 1.0293 14.6701V15.3974C1.0293 18.2039 3.33196 20.4883 6.16263 20.4883H17.896C20.7266 20.4883 23.0293 18.2039 23.0293 15.3974V14.6701C23.0293 14.1101 22.8079 13.6029 22.4549 13.2156C22.8079 12.8282 23.0293 12.321 23.0293 11.761V11.0337C23.0293 7.42428 20.0681 4.48828 16.4293 4.48828H7.6293ZM7.6293 5.94283H16.4293C18.4817 5.94283 20.252 7.14591 21.0728 8.87607C20.9919 8.86703 20.9125 8.85192 20.8293 8.85192C20.382 8.85192 19.9708 8.983 19.6262 9.20845C19.1642 8.55391 18.3946 8.12464 17.5293 8.12464C16.972 8.12464 16.4591 8.30658 16.0411 8.60476C15.5865 7.88476 14.7793 7.39737 13.8626 7.39737C13.144 7.39737 12.4986 7.69595 12.0293 8.16868C11.56 7.69595 10.9146 7.39737 10.196 7.39737C9.2793 7.39737 8.47211 7.88476 8.01745 8.60476C7.59945 8.30658 7.08663 8.12464 6.5293 8.12464C5.66396 8.12464 4.89442 8.55391 4.43242 9.20845C4.08776 8.983 3.67663 8.85192 3.2293 8.85192C3.14609 8.85192 3.06669 8.86703 2.98581 8.87607C3.8066 7.14591 5.57688 5.94283 7.6293 5.94283ZM10.196 8.85192C10.8046 8.85192 11.296 9.33919 11.296 9.94283V11.761C11.296 12.161 10.966 12.4883 10.5626 12.4883H9.8293C9.42596 12.4883 9.09596 12.161 9.09596 11.761V9.94283C9.09596 9.33919 9.5873 8.85192 10.196 8.85192ZM13.8626 8.85192C14.4713 8.85192 14.9626 9.33919 14.9626 9.94283V11.761C14.9626 12.161 14.6326 12.4883 14.2293 12.4883H13.496C13.0926 12.4883 12.7626 12.161 12.7626 11.761V9.94283C12.7626 9.33919 13.254 8.85192 13.8626 8.85192ZM6.5293 9.57919C7.13796 9.57919 7.6293 10.0665 7.6293 10.6701V11.761C7.6293 12.161 7.2993 12.4883 6.89596 12.4883H6.16263C5.7593 12.4883 5.4293 12.161 5.4293 11.761V10.6701C5.4293 10.0665 5.92063 9.57919 6.5293 9.57919ZM17.5293 9.57919C18.138 9.57919 18.6293 10.0665 18.6293 10.6701V11.761C18.6293 12.161 18.2993 12.4883 17.896 12.4883H17.1626C16.7593 12.4883 16.4293 12.161 16.4293 11.761V10.6701C16.4293 10.0665 16.9206 9.57919 17.5293 9.57919ZM3.2293 10.3065C3.63263 10.3065 3.96263 10.6337 3.96263 11.0337V11.761C3.96263 12.161 3.63263 12.4883 3.2293 12.4883C2.82596 12.4883 2.49596 12.161 2.49596 11.761V11.0337C2.49596 10.6337 2.82596 10.3065 3.2293 10.3065ZM20.8293 10.3065C21.2326 10.3065 21.5626 10.6337 21.5626 11.0337V11.761C21.5626 12.161 21.2326 12.4883 20.8293 12.4883C20.426 12.4883 20.096 12.161 20.096 11.761V11.0337C20.096 10.6337 20.426 10.3065 20.8293 10.3065ZM3.2293 13.9428C3.63263 13.9428 3.96263 14.2701 3.96263 14.6701C3.96263 15.0701 3.63263 15.3974 3.2293 15.3974C2.82596 15.3974 2.49596 15.0701 2.49596 14.6701C2.49596 14.2701 2.82596 13.9428 3.2293 13.9428ZM6.16263 13.9428H6.89596C7.2993 13.9428 7.6293 14.2701 7.6293 14.6701V15.3974C7.6293 15.7974 7.2993 16.1246 6.89596 16.1246C6.0893 16.1246 5.4293 15.4701 5.4293 14.6701C5.4293 14.2701 5.7593 13.9428 6.16263 13.9428ZM9.8293 13.9428H10.5626C10.966 13.9428 11.296 14.2701 11.296 14.6701V15.3974C11.296 15.7974 10.966 16.1246 10.5626 16.1246H9.8293C9.42596 16.1246 9.09596 15.7974 9.09596 15.3974V14.6701C9.09596 14.2701 9.42596 13.9428 9.8293 13.9428ZM13.496 13.9428H14.2293C14.6326 13.9428 14.9626 14.2701 14.9626 14.6701V15.3974C14.9626 15.7974 14.6326 16.1246 14.2293 16.1246H13.496C13.0926 16.1246 12.7626 15.7974 12.7626 15.3974V14.6701C12.7626 14.2701 13.0926 13.9428 13.496 13.9428ZM17.1626 13.9428H17.896C18.2993 13.9428 18.6293 14.2701 18.6293 14.6701C18.6293 15.4701 17.9693 16.1246 17.1626 16.1246C16.7593 16.1246 16.4293 15.7974 16.4293 15.3974V14.6701C16.4293 14.2701 16.7593 13.9428 17.1626 13.9428ZM20.8293 13.9428C21.2326 13.9428 21.5626 14.2701 21.5626 14.6701C21.5626 15.0701 21.2326 15.3974 20.8293 15.3974C20.426 15.3974 20.096 15.0701 20.096 14.6701C20.096 14.2701 20.426 13.9428 20.8293 13.9428ZM4.54987 16.4016C5.09254 17.1144 5.9353 17.5792 6.89596 17.5792C7.46063 17.5792 7.97396 17.3615 8.36263 17.0124C8.7513 17.3615 9.26463 17.5792 9.8293 17.5792H10.5626C11.1273 17.5792 11.6406 17.3615 12.0293 17.0124C12.418 17.3615 12.9313 17.5792 13.496 17.5792H14.2293C14.794 17.5792 15.3073 17.3615 15.696 17.0124C16.0846 17.3615 16.598 17.5792 17.1626 17.5792C18.1233 17.5792 18.9661 17.1144 19.5087 16.4016C19.8754 16.6853 20.3306 16.8519 20.8293 16.8519C20.9821 16.8519 21.1319 16.8363 21.2762 16.8065C20.7201 18.114 19.4144 19.0337 17.896 19.0337H6.16263C4.64421 19.0337 3.33853 18.114 2.78242 16.8065C2.92669 16.8363 3.07646 16.8519 3.2293 16.8519C3.72796 16.8519 4.1832 16.6853 4.54987 16.4016Z" fill="white" stroke="#2B70C9" stroke-width="50" mask="url(#path-1-inside-1_4566_4742)"/>
</g>
</g>
</svg>
