<svg width="18" height="22" viewBox="0 0 18 22" fill="none" xmlns="http://www.w3.org/2000/svg">
<g id="Notification 3">
<path id="Vector" d="M5.21266 17.4883L5.61266 18.174C7.41266 21.2597 11.0127 21.2597 12.8127 18.174L13.2127 17.4883M1.39549 15.0379L1.49884 15.251C2.16261 16.6194 3.54984 17.4883 5.07074 17.4883H13.2915C14.5949 17.4883 15.8078 16.8225 16.5076 15.7229C17.4954 14.1709 17.2338 12.1348 15.8857 10.8828L15.8418 10.842C14.9265 9.99204 14.4759 8.75372 14.6308 7.51427L14.6955 6.99733C15.0611 4.07207 12.7802 1.48828 9.83216 1.48828H8.12925C5.18481 1.48828 2.90667 4.06892 3.27188 6.99062L3.35124 7.62547C3.49738 8.79459 3.07032 9.96238 2.20444 10.7614C1.02172 11.8528 0.693124 13.5899 1.39549 15.0379Z" stroke="#37474F" stroke-width="1.5" stroke-linecap="round"/>
</g>
</svg>
