<svg width="19" height="22" viewBox="0 0 19 22" fill="none" xmlns="http://www.w3.org/2000/svg">
<g id="Profile Add 2">
<path id="Vector" d="M11.0293 13.2383C11.4435 13.2383 11.7793 12.9025 11.7793 12.4883C11.7793 12.0741 11.4435 11.7383 11.0293 11.7383V13.2383ZM11.0293 21.2383C11.4435 21.2383 11.7793 20.9025 11.7793 20.4883C11.7793 20.0741 11.4435 19.7383 11.0293 19.7383V21.2383ZM12.0293 15.7383C11.6151 15.7383 11.2793 16.0741 11.2793 16.4883C11.2793 16.9025 11.6151 17.2383 12.0293 17.2383V15.7383ZM18.0293 17.2383C18.4435 17.2383 18.7793 16.9025 18.7793 16.4883C18.7793 16.0741 18.4435 15.7383 18.0293 15.7383V17.2383ZM14.2793 19.4883C14.2793 19.9025 14.6151 20.2383 15.0293 20.2383C15.4435 20.2383 15.7793 19.9025 15.7793 19.4883H14.2793ZM15.7793 13.4883C15.7793 13.0741 15.4435 12.7383 15.0293 12.7383C14.6151 12.7383 14.2793 13.0741 14.2793 13.4883H15.7793ZM11.2793 5.48828C11.2793 7.28321 9.82422 8.73828 8.0293 8.73828V10.2383C10.6526 10.2383 12.7793 8.11163 12.7793 5.48828H11.2793ZM8.0293 8.73828C6.23437 8.73828 4.7793 7.28321 4.7793 5.48828H3.2793C3.2793 8.11163 5.40594 10.2383 8.0293 10.2383V8.73828ZM4.7793 5.48828C4.7793 3.69336 6.23437 2.23828 8.0293 2.23828V0.738281C5.40594 0.738281 3.2793 2.86493 3.2793 5.48828H4.7793ZM8.0293 2.23828C9.82422 2.23828 11.2793 3.69336 11.2793 5.48828H12.7793C12.7793 2.86493 10.6526 0.738281 8.0293 0.738281V2.23828ZM5.0293 13.2383H11.0293V11.7383H5.0293V13.2383ZM11.0293 19.7383H5.0293V21.2383H11.0293V19.7383ZM5.0293 19.7383C3.23437 19.7383 1.7793 18.2832 1.7793 16.4883H0.279297C0.279297 19.1116 2.40594 21.2383 5.0293 21.2383V19.7383ZM5.0293 11.7383C2.40594 11.7383 0.279297 13.8649 0.279297 16.4883H1.7793C1.7793 14.6934 3.23437 13.2383 5.0293 13.2383V11.7383ZM12.0293 17.2383H18.0293V15.7383H12.0293V17.2383ZM15.7793 19.4883V13.4883H14.2793V19.4883H15.7793Z" fill="#37474F"/>
</g>
</svg>
