<svg width="18" height="13" viewBox="0 0 18 13" fill="none" xmlns="http://www.w3.org/2000/svg">
<g id="Right 1">
<path id="Vector" d="M13.5573 0.95559C13.2631 0.664007 12.7882 0.666126 12.4966 0.960323C12.205 1.25452 12.2071 1.72939 12.5013 2.02097L14.2643 3.76828C14.9798 4.47742 15.4706 4.96546 15.8027 5.37899C15.9106 5.51338 15.9948 5.63168 16.0602 5.73828L1.0293 5.73828C0.615083 5.73828 0.279297 6.07407 0.279297 6.48828C0.279297 6.9025 0.615083 7.23828 1.0293 7.23828L16.0602 7.23828C15.9948 7.34488 15.9106 7.46319 15.8027 7.59758C15.4706 8.0111 14.9798 8.49914 14.2643 9.20828L12.5013 10.9556C12.2071 11.2472 12.205 11.722 12.4966 12.0162C12.7882 12.3104 13.2631 12.3126 13.5573 12.021L15.352 10.2422C16.028 9.57224 16.5804 9.02469 16.9722 8.53682C17.3797 8.0295 17.6746 7.51456 17.7534 6.89644C17.7707 6.76093 17.7793 6.62461 17.7793 6.48828C17.7793 6.35196 17.7707 6.21563 17.7534 6.08012C17.6746 5.46201 17.3797 4.94707 16.9722 4.43974C16.5804 3.95187 16.028 3.40432 15.352 2.73437L13.5573 0.95559Z" fill="#37474F"/>
</g>
</svg>
