<svg width="25" height="25" viewBox="0 0 25 25" fill="none" xmlns="http://www.w3.org/2000/svg">
<g id="Hicon / Outline /teeth/teeth">
<path id="Vector" d="M9.57761 4.91958C9.0142 4.69808 8.48053 4.48828 7.6543 4.48828C5.9043 4.48828 5.0293 6.37063 5.0293 8.72358C5.0293 10.228 5.38704 11.1554 5.75941 12.1206C5.9694 12.6649 6.18404 13.2213 6.3418 13.9C6.47217 14.461 6.52485 15.2727 6.58086 16.1358C6.71281 18.1692 6.8633 20.4883 8.0918 20.4883C8.8784 20.4883 9.22305 19.1572 9.6025 17.6917C10.0672 15.8967 10.5842 13.9 12.0293 13.9C13.4744 13.9 13.9913 15.8967 14.4561 17.6917C14.8355 19.1572 15.1802 20.4883 15.9668 20.4883C17.1953 20.4883 17.3458 18.1692 17.4777 16.1358C17.5337 15.2727 17.5864 14.461 17.7168 13.9C17.8746 13.2213 18.0892 12.6649 18.2992 12.1206C18.6716 11.1554 19.0293 10.228 19.0293 8.72358C19.0293 6.37063 18.1543 4.48828 16.4043 4.48828C15.578 4.48828 15.0444 4.69808 14.481 4.91958C13.851 5.16721 13.184 5.42946 12.0293 5.42946C10.8746 5.42946 10.2075 5.16721 9.57761 4.91958Z" stroke="white" stroke-width="1.5" stroke-linecap="round" stroke-linejoin="round"/>
</g>
</svg>
