<svg width="35" height="35" viewBox="0 0 35 35" fill="none" xmlns="http://www.w3.org/2000/svg">
<g id="tooth-svgrepo-com (7) 1">
<g id="Group">
<g id="Group_2">
<g id="Group_3">
<path id="Vector" d="M18.8708 4.56423L18.8708 4.56423C17.7178 5.16078 16.3405 5.16064 15.1875 4.56423C9.72842 1.74005 3.1792 5.718 3.1792 11.858C3.1792 13.7657 3.96447 18.6002 5.35524 22.9539C6.05111 25.1322 6.90424 27.2088 7.89761 28.7459C8.88061 30.267 10.0526 31.3382 11.4067 31.3382C12.355 31.3382 13.2325 30.8528 14.0492 29.9393C14.8638 29.0282 15.6371 27.6711 16.3861 25.8727C16.6225 25.3051 17.4359 25.3051 17.6722 25.8727L17.6723 25.8727C18.4213 27.6711 19.1946 29.0282 20.0092 29.9393C20.8258 30.8528 21.7034 31.3382 22.6517 31.3382C23.9938 31.3382 25.1598 30.2745 26.1404 28.7631C27.1316 27.2354 27.9862 25.1701 28.6851 22.9991C30.0819 18.6603 30.8792 13.8255 30.8792 11.858C30.8791 5.72009 24.3322 1.73883 18.8708 4.56423ZM19.4456 25.1364L19.4456 25.1364C18.5529 22.9934 15.5058 22.9923 14.6128 25.1365L14.8436 25.2326L14.6128 25.1365C14.0299 26.5361 13.433 27.6235 12.8656 28.3563C12.5818 28.7227 12.3113 28.9928 12.0604 29.1696C11.8092 29.3466 11.5913 29.4207 11.4068 29.4207C11.1101 29.4207 10.775 29.2599 10.4046 28.9052C10.0368 28.553 9.66083 28.0346 9.28646 27.3817C8.53848 26.0774 7.82238 24.282 7.19955 22.3376C5.95242 18.4442 5.09978 14.0196 5.09978 11.8581C5.09978 7.14876 10.1261 4.10566 14.3041 6.26686C16.0106 7.14967 18.0478 7.14967 19.7543 6.26686C23.9281 4.1077 28.9585 7.14443 28.9585 11.8581C28.9585 14.0102 28.1065 18.4348 26.8596 22.3306C26.2369 24.2762 25.5209 26.0733 24.7728 27.3791C24.3984 28.0327 24.0223 28.5518 23.6543 28.9045C23.2838 29.2597 22.9485 29.4207 22.6516 29.4207C22.467 29.4207 22.2491 29.3466 21.9979 29.1696C21.7471 28.9928 21.4765 28.7227 21.1928 28.3563C20.6254 27.6235 20.0285 26.5361 19.4456 25.1364Z" fill="#2B70C9" stroke="#2B70C9" stroke-width="0.5"/>
<path id="Vector_2" d="M12.6455 7.03809C9.30035 7.03809 6.5791 9.75919 6.5791 13.1044C6.5791 13.7319 7.08777 14.2404 7.7151 14.2404C8.34243 14.2404 8.85109 13.7319 8.85109 13.1044C8.85109 11.0124 10.5534 9.31008 12.6455 9.31008C13.2728 9.31008 13.7815 8.80159 13.7815 8.17408C13.7815 7.54657 13.2728 7.03809 12.6455 7.03809Z" fill="#2B70C9" stroke="#2B70C9" stroke-width="0.5"/>
</g>
</g>
</g>
</g>
</svg>
