<svg width="25" height="25" viewBox="0 0 25 25" fill="none" xmlns="http://www.w3.org/2000/svg">
<g id="Hicon / Outline /teeth/up">
<g id="Vector">
<mask id="path-1-inside-1_4566_943" fill="white">
<path d="M7.6293 4.48828C3.98976 4.48828 1.0293 6.97259 1.0293 10.0267V10.6421C1.0293 11.6575 2.0193 12.4883 3.2293 12.4883C3.79396 12.4883 4.3073 12.3041 4.69596 12.0087C5.08463 12.3041 5.59796 12.4883 6.16263 12.4883H6.89596C7.46063 12.4883 7.97396 12.3041 8.36263 12.0087C8.7513 12.3041 9.26463 12.4883 9.8293 12.4883H10.5626C11.1273 12.4883 11.6406 12.3041 12.0293 12.0087C12.418 12.3041 12.9313 12.4883 13.496 12.4883H14.2293C14.794 12.4883 15.3073 12.3041 15.696 12.0087C16.0846 12.3041 16.598 12.4883 17.1626 12.4883H17.896C18.4606 12.4883 18.974 12.3041 19.3626 12.0087C19.7513 12.3041 20.2646 12.4883 20.8293 12.4883C22.0393 12.4883 23.0293 11.6575 23.0293 10.6421V10.0267C23.0293 6.97259 20.0688 4.48828 16.4293 4.48828H7.6293ZM7.6293 5.71905H16.4293C18.4812 5.71905 20.2518 6.73705 21.0728 8.20102C20.9919 8.19337 20.9125 8.18059 20.8293 8.18059C20.382 8.18059 19.9708 8.2915 19.6262 8.48227C19.1642 7.92843 18.3946 7.5652 17.5293 7.5652C16.972 7.5652 16.4591 7.71915 16.0411 7.97145C15.5865 7.36222 14.7793 6.94982 13.8626 6.94982C13.144 6.94982 12.4986 7.20246 12.0293 7.60246C11.56 7.20246 10.9146 6.94982 10.196 6.94982C9.2793 6.94982 8.47211 7.36222 8.01745 7.97145C7.59945 7.71915 7.08663 7.5652 6.5293 7.5652C5.66396 7.5652 4.89442 7.92843 4.43242 8.48227C4.08776 8.2915 3.67663 8.18059 3.2293 8.18059C3.14609 8.18059 3.06669 8.19337 2.98581 8.20102C3.80677 6.73705 5.57741 5.71905 7.6293 5.71905ZM10.196 8.18059C10.8046 8.18059 11.296 8.5929 11.296 9.10367V10.6421C11.296 10.9806 10.966 11.2575 10.5626 11.2575H9.8293C9.42596 11.2575 9.09596 10.9806 9.09596 10.6421V9.10367C9.09596 8.5929 9.5873 8.18059 10.196 8.18059ZM13.8626 8.18059C14.4713 8.18059 14.9626 8.5929 14.9626 9.10367V10.6421C14.9626 10.9806 14.6326 11.2575 14.2293 11.2575H13.496C13.0926 11.2575 12.7626 10.9806 12.7626 10.6421V9.10367C12.7626 8.5929 13.254 8.18059 13.8626 8.18059ZM6.5293 8.79597C7.13796 8.79597 7.6293 9.20828 7.6293 9.71905V10.6421C7.6293 10.9806 7.2993 11.2575 6.89596 11.2575H6.16263C5.7593 11.2575 5.4293 10.9806 5.4293 10.6421V9.71905C5.4293 9.20828 5.92063 8.79597 6.5293 8.79597ZM17.5293 8.79597C18.138 8.79597 18.6293 9.20828 18.6293 9.71905V10.6421C18.6293 10.9806 18.2993 11.2575 17.896 11.2575H17.1626C16.7593 11.2575 16.4293 10.9806 16.4293 10.6421V9.71905C16.4293 9.20828 16.9206 8.79597 17.5293 8.79597ZM3.2293 9.41136C3.63263 9.41136 3.96263 9.68828 3.96263 10.0267V10.6421C3.96263 10.9806 3.63263 11.2575 3.2293 11.2575C2.82596 11.2575 2.49596 10.9806 2.49596 10.6421V10.0267C2.49596 9.68828 2.82596 9.41136 3.2293 9.41136ZM20.8293 9.41136C21.2326 9.41136 21.5626 9.68828 21.5626 10.0267V10.6421C21.5626 10.9806 21.2326 11.2575 20.8293 11.2575C20.426 11.2575 20.096 10.9806 20.096 10.6421V10.0267C20.096 9.68828 20.426 9.41136 20.8293 9.41136Z"/>
</mask>
<path d="M7.6293 4.48828C3.98976 4.48828 1.0293 6.97259 1.0293 10.0267V10.6421C1.0293 11.6575 2.0193 12.4883 3.2293 12.4883C3.79396 12.4883 4.3073 12.3041 4.69596 12.0087C5.08463 12.3041 5.59796 12.4883 6.16263 12.4883H6.89596C7.46063 12.4883 7.97396 12.3041 8.36263 12.0087C8.7513 12.3041 9.26463 12.4883 9.8293 12.4883H10.5626C11.1273 12.4883 11.6406 12.3041 12.0293 12.0087C12.418 12.3041 12.9313 12.4883 13.496 12.4883H14.2293C14.794 12.4883 15.3073 12.3041 15.696 12.0087C16.0846 12.3041 16.598 12.4883 17.1626 12.4883H17.896C18.4606 12.4883 18.974 12.3041 19.3626 12.0087C19.7513 12.3041 20.2646 12.4883 20.8293 12.4883C22.0393 12.4883 23.0293 11.6575 23.0293 10.6421V10.0267C23.0293 6.97259 20.0688 4.48828 16.4293 4.48828H7.6293ZM7.6293 5.71905H16.4293C18.4812 5.71905 20.2518 6.73705 21.0728 8.20102C20.9919 8.19337 20.9125 8.18059 20.8293 8.18059C20.382 8.18059 19.9708 8.2915 19.6262 8.48227C19.1642 7.92843 18.3946 7.5652 17.5293 7.5652C16.972 7.5652 16.4591 7.71915 16.0411 7.97145C15.5865 7.36222 14.7793 6.94982 13.8626 6.94982C13.144 6.94982 12.4986 7.20246 12.0293 7.60246C11.56 7.20246 10.9146 6.94982 10.196 6.94982C9.2793 6.94982 8.47211 7.36222 8.01745 7.97145C7.59945 7.71915 7.08663 7.5652 6.5293 7.5652C5.66396 7.5652 4.89442 7.92843 4.43242 8.48227C4.08776 8.2915 3.67663 8.18059 3.2293 8.18059C3.14609 8.18059 3.06669 8.19337 2.98581 8.20102C3.80677 6.73705 5.57741 5.71905 7.6293 5.71905ZM10.196 8.18059C10.8046 8.18059 11.296 8.5929 11.296 9.10367V10.6421C11.296 10.9806 10.966 11.2575 10.5626 11.2575H9.8293C9.42596 11.2575 9.09596 10.9806 9.09596 10.6421V9.10367C9.09596 8.5929 9.5873 8.18059 10.196 8.18059ZM13.8626 8.18059C14.4713 8.18059 14.9626 8.5929 14.9626 9.10367V10.6421C14.9626 10.9806 14.6326 11.2575 14.2293 11.2575H13.496C13.0926 11.2575 12.7626 10.9806 12.7626 10.6421V9.10367C12.7626 8.5929 13.254 8.18059 13.8626 8.18059ZM6.5293 8.79597C7.13796 8.79597 7.6293 9.20828 7.6293 9.71905V10.6421C7.6293 10.9806 7.2993 11.2575 6.89596 11.2575H6.16263C5.7593 11.2575 5.4293 10.9806 5.4293 10.6421V9.71905C5.4293 9.20828 5.92063 8.79597 6.5293 8.79597ZM17.5293 8.79597C18.138 8.79597 18.6293 9.20828 18.6293 9.71905V10.6421C18.6293 10.9806 18.2993 11.2575 17.896 11.2575H17.1626C16.7593 11.2575 16.4293 10.9806 16.4293 10.6421V9.71905C16.4293 9.20828 16.9206 8.79597 17.5293 8.79597ZM3.2293 9.41136C3.63263 9.41136 3.96263 9.68828 3.96263 10.0267V10.6421C3.96263 10.9806 3.63263 11.2575 3.2293 11.2575C2.82596 11.2575 2.49596 10.9806 2.49596 10.6421V10.0267C2.49596 9.68828 2.82596 9.41136 3.2293 9.41136ZM20.8293 9.41136C21.2326 9.41136 21.5626 9.68828 21.5626 10.0267V10.6421C21.5626 10.9806 21.2326 11.2575 20.8293 11.2575C20.426 11.2575 20.096 10.9806 20.096 10.6421V10.0267C20.096 9.68828 20.426 9.41136 20.8293 9.41136Z" fill="#546E7A"/>
<path d="M4.69596 12.0087L19.823 -7.89539L4.69596 -19.3918L-10.4311 -7.89539L4.69596 12.0087ZM8.36263 12.0087L23.4896 -7.89539L8.36263 -19.3918L-6.76439 -7.89539L8.36263 12.0087ZM12.0293 12.0087L27.1563 -7.89539L12.0293 -19.3918L-3.09772 -7.89539L12.0293 12.0087ZM15.696 12.0087L30.823 -7.89539L15.696 -19.3918L0.568947 -7.89539L15.696 12.0087ZM19.3626 12.0087L34.4896 -7.89539L19.3626 -19.3918L4.23561 -7.89539L19.3626 12.0087ZM21.0728 8.20102L18.7194 33.09L66.2107 37.5805L42.8782 -4.02695L21.0728 8.20102ZM19.6262 8.48227L0.428509 24.4963L13.6601 40.3584L31.7327 30.3554L19.6262 8.48227ZM16.0411 7.97145L-3.99442 22.9239L9.55928 41.0852L28.9603 29.3746L16.0411 7.97145ZM12.0293 7.60246L-4.18701 26.6296L12.0293 40.4503L28.2456 26.6296L12.0293 7.60246ZM8.01745 7.97145L-4.90166 29.3746L14.4993 41.0852L28.053 22.9239L8.01745 7.97145ZM4.43242 8.48227L-7.6741 30.3554L10.3985 40.3584L23.6301 24.4963L4.43242 8.48227ZM2.98581 8.20102L-18.8196 -4.02695L-42.1521 37.5805L5.33915 33.09L2.98581 8.20102ZM7.6293 -20.5117C-5.53125 -20.5117 -23.9707 -10.7622 -23.9707 10.0267H26.0293C26.0293 16.9984 22.5918 22.2779 19.0349 25.2627C15.5255 28.2077 11.4184 29.4883 7.6293 29.4883V-20.5117ZM-23.9707 10.0267V10.6421H26.0293V10.0267H-23.9707ZM-23.9707 10.6421C-23.9707 29.3923 -7.50171 37.4883 3.2293 37.4883V-12.5117C11.5403 -12.5117 26.0293 -6.07724 26.0293 10.6421H-23.9707ZM3.2293 37.4883C9.20553 37.4883 15.043 35.5456 19.823 31.9128L-10.4311 -7.89539C-6.42836 -10.9374 -1.6176 -12.5117 3.2293 -12.5117V37.4883ZM-10.4311 31.9128C-5.65103 35.5456 0.186399 37.4883 6.16263 37.4883V-12.5117C11.0095 -12.5117 15.8203 -10.9374 19.823 -7.89539L-10.4311 31.9128ZM6.16263 37.4883H6.89596V-12.5117H6.16263V37.4883ZM6.89596 37.4883C12.8722 37.4883 18.7096 35.5456 23.4896 31.9128L-6.76439 -7.89539C-2.7617 -10.9374 2.04907 -12.5117 6.89596 -12.5117V37.4883ZM-6.76439 31.9128C-1.98436 35.5456 3.85307 37.4883 9.8293 37.4883V-12.5117C14.6762 -12.5117 19.487 -10.9374 23.4896 -7.89539L-6.76439 31.9128ZM9.8293 37.4883H10.5626V-12.5117H9.8293V37.4883ZM10.5626 37.4883C16.5389 37.4883 22.3763 35.5456 27.1563 31.9128L-3.09772 -7.89539C0.904969 -10.9374 5.71573 -12.5117 10.5626 -12.5117V37.4883ZM-3.09772 31.9128C1.6823 35.5456 7.51973 37.4883 13.496 37.4883V-12.5117C18.3429 -12.5117 23.1536 -10.9374 27.1563 -7.89539L-3.09772 31.9128ZM13.496 37.4883H14.2293V-12.5117H13.496V37.4883ZM14.2293 37.4883C20.2055 37.4883 26.043 35.5456 30.823 31.9128L0.568947 -7.89539C4.57164 -10.9374 9.3824 -12.5117 14.2293 -12.5117V37.4883ZM0.568947 31.9128C5.34897 35.5456 11.1864 37.4883 17.1626 37.4883V-12.5117C22.0095 -12.5117 26.8203 -10.9374 30.823 -7.89539L0.568947 31.9128ZM17.1626 37.4883H17.896V-12.5117H17.1626V37.4883ZM17.896 37.4883C23.8722 37.4883 29.7096 35.5456 34.4896 31.9128L4.23561 -7.89539C8.2383 -10.9374 13.0491 -12.5117 17.896 -12.5117V37.4883ZM4.23561 31.9128C9.01564 35.5456 14.8531 37.4883 20.8293 37.4883V-12.5117C25.6762 -12.5117 30.487 -10.9374 34.4896 -7.89539L4.23561 31.9128ZM20.8293 37.4883C31.5603 37.4883 48.0293 29.3923 48.0293 10.6421H-1.9707C-1.9707 -6.07724 12.5183 -12.5117 20.8293 -12.5117V37.4883ZM48.0293 10.6421V10.0267H-1.9707V10.6421H48.0293ZM48.0293 10.0267C48.0293 -10.7622 29.5898 -20.5117 16.4293 -20.5117V29.4883C12.6402 29.4883 8.53313 28.2077 5.02374 25.2627C1.46679 22.2779 -1.9707 16.9984 -1.9707 10.0267H48.0293ZM16.4293 -20.5117H7.6293V29.4883H16.4293V-20.5117ZM7.6293 30.7191H16.4293V-19.2809H7.6293V30.7191ZM16.4293 30.7191C10.6402 30.7191 3.42828 27.8489 -0.732644 20.429L42.8782 -4.02695C37.0754 -14.3748 26.3221 -19.2809 16.4293 -19.2809V30.7191ZM23.4261 -16.688C23.5482 -16.6764 23.6472 -16.6661 23.711 -16.6592C23.7722 -16.6527 23.8179 -16.6475 23.8204 -16.6472C23.8757 -16.6409 23.6898 -16.6623 23.5103 -16.6808C23.1162 -16.7214 22.1102 -16.8194 20.8293 -16.8194V33.1806C19.6316 33.1806 18.7069 33.0889 18.3935 33.0567C18.2544 33.0424 18.1087 33.0256 18.2043 33.0364C18.2364 33.04 18.453 33.0648 18.7194 33.09L23.4261 -16.688ZM20.8293 -16.8194C16.2339 -16.8194 11.6454 -15.6744 7.51965 -13.3908L31.7327 30.3554C28.2963 32.2574 24.53 33.1806 20.8293 33.1806V-16.8194ZM38.8238 -7.53178C33.2022 -14.271 25.1454 -17.4348 17.5293 -17.4348V32.5652C11.6438 32.5652 5.12618 30.1279 0.428509 24.4963L38.8238 -7.53178ZM17.5293 -17.4348C12.3687 -17.4348 7.39575 -16.0114 3.12203 -13.4317L28.9603 29.3746C25.5225 31.4497 21.5752 32.5652 17.5293 32.5652V-17.4348ZM36.0767 -6.98101C30.529 -14.4147 22.0218 -18.0502 13.8626 -18.0502V31.9498C7.53677 31.9498 0.644005 29.1392 -3.99442 22.9239L36.0767 -6.98101ZM13.8626 -18.0502C7.29759 -18.0502 0.879337 -15.7426 -4.18701 -11.4247L28.2456 26.6296C24.1179 30.1475 18.9903 31.9498 13.8626 31.9498V-18.0502ZM28.2456 -11.4247C23.1793 -15.7426 16.761 -18.0502 10.196 -18.0502V31.9498C5.06826 31.9498 -0.0593301 30.1475 -4.18701 26.6296L28.2456 -11.4247ZM10.196 -18.0502C2.03677 -18.0502 -6.47036 -14.4147 -12.0181 -6.98101L28.053 22.9239C23.4146 29.1392 16.5218 31.9498 10.196 31.9498V-18.0502ZM20.9366 -13.4317C16.6628 -16.0114 11.6898 -17.4348 6.5293 -17.4348V32.5652C2.48341 32.5652 -1.46395 31.4497 -4.90166 29.3746L20.9366 -13.4317ZM6.5293 -17.4348C-1.08684 -17.4348 -9.14357 -14.271 -14.7652 -7.53178L23.6301 24.4963C18.9324 30.1279 12.4148 32.5652 6.5293 32.5652V-17.4348ZM16.5389 -13.3908C12.4132 -15.6744 7.82466 -16.8194 3.2293 -16.8194V33.1806C-0.471402 33.1806 -4.23772 32.2574 -7.6741 30.3554L16.5389 -13.3908ZM3.2293 -16.8194C1.94839 -16.8194 0.942424 -16.7214 0.548262 -16.6808C0.368808 -16.6623 0.182861 -16.6409 0.238227 -16.6472C0.240703 -16.6475 0.286396 -16.6527 0.347578 -16.6592C0.41141 -16.6661 0.510365 -16.6764 0.632461 -16.688L5.33915 33.09C5.60556 33.0648 5.82216 33.04 5.85432 33.0364C5.94992 33.0256 5.80419 33.0424 5.66509 33.0567C5.35166 33.0889 4.427 33.1806 3.2293 33.1806V-16.8194ZM24.7912 20.429C20.6303 27.8489 13.4183 30.7191 7.6293 30.7191V-19.2809C-2.26352 -19.2809 -13.0168 -14.3748 -18.8196 -4.02695L24.7912 20.429ZM10.196 33.1806C1.28362 33.1806 -13.704 26.3277 -13.704 9.10367H36.296C36.296 -9.14186 20.3256 -16.8194 10.196 -16.8194V33.1806ZM-13.704 9.10367V10.6421H36.296V9.10367H-13.704ZM-13.704 10.6421C-13.704 -6.75417 1.44495 -13.7425 10.5626 -13.7425V36.2575C20.487 36.2575 36.296 28.7153 36.296 10.6421H-13.704ZM10.5626 -13.7425H9.8293V36.2575H10.5626V-13.7425ZM9.8293 -13.7425C18.947 -13.7425 34.096 -6.75417 34.096 10.6421H-15.904C-15.904 28.7153 -0.0950456 36.2575 9.8293 36.2575V-13.7425ZM34.096 10.6421V9.10367H-15.904V10.6421H34.096ZM34.096 9.10367C34.096 26.3277 19.1083 33.1806 10.196 33.1806V-16.8194C0.0662877 -16.8194 -15.904 -9.14186 -15.904 9.10367H34.096ZM13.8626 33.1806C4.95029 33.1806 -10.0374 26.3277 -10.0374 9.10367H39.9626C39.9626 -9.14186 23.9923 -16.8194 13.8626 -16.8194V33.1806ZM-10.0374 9.10367V10.6421H39.9626V9.10367H-10.0374ZM-10.0374 10.6421C-10.0374 -6.75417 5.11162 -13.7425 14.2293 -13.7425V36.2575C24.1536 36.2575 39.9626 28.7153 39.9626 10.6421H-10.0374ZM14.2293 -13.7425H13.496V36.2575H14.2293V-13.7425ZM13.496 -13.7425C22.6136 -13.7425 37.7626 -6.75417 37.7626 10.6421H-12.2374C-12.2374 28.7153 3.57162 36.2575 13.496 36.2575V-13.7425ZM37.7626 10.6421V9.10367H-12.2374V10.6421H37.7626ZM37.7626 9.10367C37.7626 26.3277 22.775 33.1806 13.8626 33.1806V-16.8194C3.73295 -16.8194 -12.2374 -9.14186 -12.2374 9.10367H37.7626ZM6.5293 33.796C-2.38305 33.796 -17.3707 26.943 -17.3707 9.71905H32.6293C32.6293 -8.52647 16.659 -16.204 6.5293 -16.204V33.796ZM-17.3707 9.71905V10.6421H32.6293V9.71905H-17.3707ZM-17.3707 10.6421C-17.3707 -6.75417 -2.22171 -13.7425 6.89596 -13.7425V36.2575C16.8203 36.2575 32.6293 28.7153 32.6293 10.6421H-17.3707ZM6.89596 -13.7425H6.16263V36.2575H6.89596V-13.7425ZM6.16263 -13.7425C15.2803 -13.7425 30.4293 -6.75417 30.4293 10.6421H-19.5707C-19.5707 28.7153 -3.76171 36.2575 6.16263 36.2575V-13.7425ZM30.4293 10.6421V9.71905H-19.5707V10.6421H30.4293ZM30.4293 9.71905C30.4293 26.943 15.4416 33.796 6.5293 33.796V-16.204C-3.60038 -16.204 -19.5707 -8.52647 -19.5707 9.71905H30.4293ZM17.5293 33.796C8.61695 33.796 -6.3707 26.943 -6.3707 9.71905H43.6293C43.6293 -8.52647 27.659 -16.204 17.5293 -16.204V33.796ZM-6.3707 9.71905V10.6421H43.6293V9.71905H-6.3707ZM-6.3707 10.6421C-6.3707 -6.75417 8.77829 -13.7425 17.896 -13.7425V36.2575C27.8203 36.2575 43.6293 28.7153 43.6293 10.6421H-6.3707ZM17.896 -13.7425H17.1626V36.2575H17.896V-13.7425ZM17.1626 -13.7425C26.2803 -13.7425 41.4293 -6.75417 41.4293 10.6421H-8.5707C-8.5707 28.7153 7.23829 36.2575 17.1626 36.2575V-13.7425ZM41.4293 10.6421V9.71905H-8.5707V10.6421H41.4293ZM41.4293 9.71905C41.4293 26.943 26.4416 33.796 17.5293 33.796V-16.204C7.39962 -16.204 -8.5707 -8.52647 -8.5707 9.71905H41.4293ZM3.2293 34.4114C-5.88838 34.4114 -21.0374 27.423 -21.0374 10.0267H28.9626C28.9626 -8.04648 13.1536 -15.5886 3.2293 -15.5886V34.4114ZM-21.0374 10.0267V10.6421H28.9626V10.0267H-21.0374ZM-21.0374 10.6421C-21.0374 -6.75417 -5.88838 -13.7425 3.2293 -13.7425V36.2575C13.1536 36.2575 28.9626 28.7153 28.9626 10.6421H-21.0374ZM3.2293 -13.7425C12.347 -13.7425 27.496 -6.75417 27.496 10.6421H-22.504C-22.504 28.7153 -6.69505 36.2575 3.2293 36.2575V-13.7425ZM27.496 10.6421V10.0267H-22.504V10.6421H27.496ZM27.496 10.0267C27.496 27.423 12.347 34.4114 3.2293 34.4114V-15.5886C-6.69505 -15.5886 -22.504 -8.04648 -22.504 10.0267H27.496ZM20.8293 34.4114C11.7116 34.4114 -3.43737 27.423 -3.43737 10.0267H46.5626C46.5626 -8.04648 30.7536 -15.5886 20.8293 -15.5886V34.4114ZM-3.43737 10.0267V10.6421H46.5626V10.0267H-3.43737ZM-3.43737 10.6421C-3.43737 -6.75417 11.7116 -13.7425 20.8293 -13.7425V36.2575C30.7536 36.2575 46.5626 28.7153 46.5626 10.6421H-3.43737ZM20.8293 -13.7425C29.947 -13.7425 45.096 -6.75417 45.096 10.6421H-4.90404C-4.90404 28.7153 10.905 36.2575 20.8293 36.2575V-13.7425ZM45.096 10.6421V10.0267H-4.90404V10.6421H45.096ZM45.096 10.0267C45.096 27.423 29.947 34.4114 20.8293 34.4114V-15.5886C10.905 -15.5886 -4.90404 -8.04648 -4.90404 10.0267H45.096Z" fill="#2B70C9" mask="url(#path-1-inside-1_4566_943)"/>
</g>
</g>
</svg>
